<svg width="40" height="40" viewBox="0 0 40 40" fill="none" xmlns="http://www.w3.org/2000/svg">
<path d="M40 20.0002C40 31.0459 31.0455 40 19.9998 40C8.95452 40 0 31.0459 0 20.0002C0 8.95405 8.95452 0 19.9998 0C31.0455 0 40 8.95405 40 20.0002Z" fill="#52B1E7"/>
<path d="M30.4129 13.3565C30.4129 13.3565 28.4898 14.4178 27.9032 14.2408C27.9032 14.2408 26.6075 13 24.8462 13C23.0849 13 20.7773 14.3314 20.7773 17.0863C20.7773 17.0863 20.7163 17.6208 20.8785 17.8566C20.8785 17.8566 16.0809 18.3279 12.336 13.789C12.336 13.789 10.4537 16.7952 13.5712 18.996C13.5712 18.996 12.7676 19.3697 11.7724 18.6425C11.7724 18.6425 11.5866 21.5509 15.0483 22.5531C15.0483 22.5531 14.3402 22.9068 13.2467 22.7106C13.2467 22.7106 13.8136 25.2846 17.0525 25.4221C17.0525 25.4221 14.947 27.4262 11 27.1123C11 27.1123 17.5753 32.0824 25.3723 25.8935C25.3723 25.8935 28.9958 22.8676 28.9756 16.9527C28.9756 16.9527 30.4734 15.9897 31 14.9876C31 14.9876 30.231 15.6556 28.7327 15.4396C28.7327 15.4396 30.3318 14.3587 30.4129 13.3565Z" fill="white"/>
</svg>
