<svg width="40" height="40" viewBox="0 0 40 40" fill="none" xmlns="http://www.w3.org/2000/svg">
<path d="M40 20.0002C40 31.0459 31.0457 40 20.0002 40C8.95406 40 0 31.0459 0 20.0002C0 8.95405 8.95406 0 20.0002 0C31.0457 0 40 8.95405 40 20.0002Z" fill="#3D539F"/>
<path d="M23.9515 9V12.4474H22.1465C21.6098 12.4474 21.2686 12.5996 21.0976 12.9033C20.9757 13.1064 20.9273 13.4611 20.9273 13.943V15.5148H24L23.6347 18.987H20.9273V29H16.9515V18.987H15V15.5148H16.9515V13.4361C16.9515 11.3068 17.659 9.93784 19.0492 9.35522C19.732 9.07633 20.3176 9 20.9273 9H23.9515Z" fill="#FAFAFA"/>
</svg>
