<svg width="40" height="40" viewBox="0 0 40 40" fill="none" xmlns="http://www.w3.org/2000/svg">
<path d="M40 20.0002C40 31.0455 31.0456 40 20 40C8.95441 40 0 31.0455 0 20.0002C0 8.95475 8.95441 0 20 0C31.0456 0 40 8.95475 40 20.0002Z" fill="#F5F01A"/>
<path d="M17 20H18L17.4997 19L17 20Z" fill="#361B1C"/>
<path d="M28.0338 21.8781C27.7817 21.8781 27.5581 21.758 27.4167 21.5727L27.4157 21.5731L26.0693 19.7621L25.7855 20.0443V21.1285C25.7855 21.5537 25.4386 21.8985 25.011 21.8985C24.6772 21.8985 24.3943 21.6868 24.2855 21.3918C24.2169 21.6819 23.9559 21.8985 23.6431 21.8985V21.9138H20.752V21.8952C20.4621 21.8681 20.2193 21.6819 20.111 21.4263C20.0993 21.4544 20.0919 21.4838 20.0774 21.5105C19.9467 21.7508 19.6909 21.9138 19.3967 21.9138H19.3963C19.3552 21.9133 19.315 21.9095 19.2754 21.9033C19.2688 21.9024 19.2623 21.9015 19.2553 21.9C19.218 21.8935 19.1811 21.8835 19.1456 21.8715C19.1395 21.8691 19.1334 21.8672 19.1269 21.865C19.0905 21.851 19.055 21.836 19.0218 21.8174C19.0209 21.817 19.0195 21.816 19.018 21.815C18.9825 21.7956 18.9499 21.7731 18.9181 21.7489C18.9172 21.7475 18.9157 21.7466 18.9138 21.7456C18.8825 21.7204 18.8536 21.6927 18.826 21.6633C18.8241 21.6614 18.8222 21.6595 18.8209 21.6573C18.7369 21.565 18.6753 21.4525 18.6445 21.327L18.3938 20.7841H16.4718L16.2206 21.327C16.1375 21.6633 15.8331 21.9138 15.469 21.9138C15.0409 21.9138 14.694 21.5689 14.694 21.1438C14.694 21.0441 14.7136 20.9494 14.7482 20.862L14.7496 20.8587C14.7585 20.8364 14.7687 20.8146 14.7795 20.7926L16.6581 16.6976C16.723 16.3374 17.039 16.0645 17.42 16.0645C17.4243 16.0645 17.4284 16.0649 17.4326 16.0649C17.4369 16.0649 17.441 16.0645 17.4452 16.0645C17.8257 16.0645 18.1422 16.3374 18.2071 16.6976L20.0493 20.7142V16.9849H20.0553C20.052 16.955 20.0493 16.9244 20.0493 16.8936C20.0493 16.4689 20.3966 16.1243 20.8242 16.1243C21.2514 16.1243 21.5987 16.4689 21.5987 16.8936C21.5987 16.9244 21.5968 16.955 21.5931 16.9849H21.5987V20.5841H23.643C23.9045 20.5841 24.1285 20.7362 24.2359 20.9552V16.8994C24.2359 16.4747 24.5832 16.1299 25.0109 16.1299C25.4385 16.1299 25.7854 16.4747 25.7854 16.8994V17.8674L27.2718 16.3905C27.4142 16.231 27.621 16.1299 27.8521 16.1299C28.2802 16.1299 28.6266 16.4747 28.6266 16.8994C28.6266 17.0965 28.5519 17.2755 28.4291 17.4119L28.43 17.4124L28.4179 17.4242C28.4062 17.4369 28.3936 17.4487 28.381 17.4613L27.1756 18.6605L28.6364 20.6249C28.7437 20.7571 28.8082 20.9252 28.8082 21.108C28.8082 21.5336 28.4613 21.878 28.0337 21.878L28.0338 21.8781ZM14.435 21.108H14.4331C14.4335 21.1203 14.435 21.1319 14.435 21.1437C14.435 21.5688 14.0881 21.9137 13.66 21.9137C13.2324 21.9137 12.8855 21.5688 12.8855 21.1437C12.8855 21.1319 12.887 21.1203 12.887 21.108H12.8855V17.4703H11.8477V17.468C11.4808 17.442 11.1918 17.1384 11.1918 16.7676C11.1918 16.396 11.4808 16.0929 11.8477 16.0669V16.0646H15.3014C15.6922 16.0646 16.0092 16.3788 16.0092 16.7675C16.0092 17.156 15.6922 17.4705 15.3014 17.4705H14.435V21.1081V21.108ZM20.0002 10C13.9257 10 9 13.8638 9 18.633C9 21.4656 10.7446 23.9791 13.4294 25.5553C13.9929 25.8858 13.4999 26.707 13.4999 26.707L11.2917 29.58C11.2516 29.6978 11.2847 29.8228 11.3706 29.9079C11.4304 29.9673 11.5093 30 11.5952 30C11.661 30 11.7273 29.9738 11.7866 29.9279C11.7866 29.9279 13.1404 29.6584 15.0391 28.7351C16.5885 28.0417 18.0189 27.1221 18.0189 27.1221C18.666 27.2137 19.3266 27.2661 20.0002 27.2661C26.0743 27.2661 31 23.4021 31 18.633C31 13.8638 26.0743 10 20.0002 10Z" fill="#361B1C"/>
</svg>
