<svg width="41" height="41" viewBox="0 0 41 41" fill="none" xmlns="http://www.w3.org/2000/svg">
<path d="M40.9531 20.9795C40.9531 32.0252 31.9986 40.9797 20.9529 40.9797C9.90764 40.9797 0.953125 32.0252 0.953125 20.9795C0.953125 9.93378 9.90764 0.979492 20.9529 0.979492C31.9986 0.979492 40.9531 9.93378 40.9531 20.9795Z" fill="#44BA3B"/>
<path d="M28.098 12.5781H13.4095C11.2447 12.5781 9.49023 14.3333 9.49023 16.4981V24.1064C9.49023 26.2707 11.2447 28.0257 13.4095 28.0257H18.9319L20.7531 31.6211L22.8185 28.0257H28.098C30.2633 28.0257 32.0182 26.2707 32.0182 24.1064V16.4981C32.0182 14.3333 30.2633 12.5781 28.098 12.5781Z" fill="white"/>
<path d="M14.1988 21.7053C13.714 21.7053 13.3197 21.3116 13.3197 20.8263C13.3197 20.341 13.714 19.9477 14.1988 19.9477C14.6841 19.9477 15.0774 20.341 15.0774 20.8263C15.0774 21.3116 14.6841 21.7053 14.1988 21.7053ZM14.3571 18.6654C13.9568 18.6654 13.5833 18.7762 13.2622 18.9655V16.9946H11.793V22.9584H13.2622V22.6861C13.5833 22.8765 13.9568 22.9869 14.3571 22.9869C15.5503 22.9869 16.5177 22.0191 16.5177 20.8263C16.5177 19.633 15.5503 18.6654 14.3571 18.6654Z" fill="#F46E16"/>
<path d="M18.8604 18.435C18.7109 17.8331 18.2707 16.9761 16.9785 16.9949V18.1473C16.9785 18.1473 17.5264 18.1473 17.5264 19.0116V22.987H18.9377V19.0116V19.0036C18.9377 18.9601 18.9326 18.7276 18.8604 18.435Z" fill="#F46E16"/>
<path d="M22.1361 21.8206C21.6172 21.8206 21.1977 21.4002 21.1977 20.8822C21.1977 20.3642 21.6172 19.9436 22.1361 19.9436C22.655 19.9436 23.0745 20.3642 23.0745 20.8822C23.0745 21.4002 22.655 21.8206 22.1361 21.8206ZM22.1361 18.6001C20.8752 18.6001 19.8535 19.6218 19.8535 20.8822C19.8535 22.1426 20.8752 23.1643 22.1361 23.1643C23.3965 23.1643 24.4186 22.1426 24.4186 20.8822C24.4186 19.6218 23.3965 18.6001 22.1361 18.6001Z" fill="#F46E16"/>
<path d="M27.2755 21.7504C26.7962 21.7504 26.4075 21.3608 26.4075 20.8819C26.4075 20.4024 26.7962 20.0132 27.2755 20.0132C27.7557 20.0132 28.1445 20.4024 28.1445 20.8819C28.1445 21.3608 27.7557 21.7504 27.2755 21.7504ZM29.7076 23.3135V18.877H28.3423V19.0612C28.029 18.877 27.6651 18.77 27.2755 18.77C26.1103 18.77 25.1641 19.716 25.1641 20.8819C25.1641 22.048 26.1103 22.9934 27.2755 22.9934C27.6651 22.9934 28.029 22.8866 28.3423 22.7026V23.3135C28.3423 24.0385 27.0625 23.8894 27.0625 23.8894V25.0413C30.0061 25.0413 29.7076 23.3135 29.7076 23.3135Z" fill="#F46E16"/>
</svg>
