<svg xmlns="http://www.w3.org/2000/svg" viewBox="0 0 100 95.87"><defs><style>.cls-1{fill:#2e2e2b;}</style></defs><g id="레이어_2" data-name="레이어 2"><g id="_迹_1" data-name="卵迹_1"><path class="cls-1" d="M85.21,31.86a3.55,3.55,0,1,1-3.54-3.54A3.54,3.54,0,0,1,85.21,31.86Z"/><path class="cls-1" d="M70.69,69.51H29.31a2.24,2.24,0,0,0,0,4.47H70.69a2.24,2.24,0,0,0,0-4.47Z"/><path class="cls-1" d="M70.69,80.56H29.31a2.24,2.24,0,0,0,0,4.47H70.69a2.24,2.24,0,0,0,0-4.47Z"/><path class="cls-1" d="M29.31,63.18H70.69a2.24,2.24,0,0,0,0-4.47H29.31a2.24,2.24,0,0,0,0,4.47Z"/><path class="cls-1" d="M83.53,47.07h-67a.67.67,0,0,0-.68.67V88.27a7.61,7.61,0,0,0,7.6,7.6H76.6a7.61,7.61,0,0,0,7.6-7.6V47.74A.67.67,0,0,0,83.53,47.07Zm-4.4,41.2A2.53,2.53,0,0,1,76.6,90.8H23.4a2.53,2.53,0,0,1-2.53-2.53V52.13H79.13Z"/><path class="cls-1" d="M21,16.55V6.19A.9.9,0,0,1,22,5.31H78a.9.9,0,0,1,.92.88V16.55h5.52V6.19A6.33,6.33,0,0,0,78,0H22a6.33,6.33,0,0,0-6.44,6.19V16.55Z"/><path class="cls-1" d="M100,26.24A8.28,8.28,0,0,0,91.72,18H8.28A8.28,8.28,0,0,0,0,26.24v35a3.68,3.68,0,0,0,3.68,3.68H14.45V59.87H5.07V26.24A3.21,3.21,0,0,1,8.28,23H91.72a3.21,3.21,0,0,1,3.21,3.2V59.87H85.55v5.07H96.32A3.68,3.68,0,0,0,100,61.26Z"/></g></g></svg>