<svg xmlns="http://www.w3.org/2000/svg" xmlns:xlink="http://www.w3.org/1999/xlink" width="410" height="280" viewBox="0 0 410 280">
  <defs>
    <clipPath id="clip-path">
      <rect id="사각형_3920" data-name="사각형 3920" width="393.974" height="213.744" fill="none"/>
    </clipPath>
    <clipPath id="clip-path-2">
      <rect id="사각형_3919" data-name="사각형 3919" width="405.974" height="213.744" fill="none"/>
    </clipPath>
    <clipPath id="clip-path-3">
      <rect id="사각형_3894" data-name="사각형 3894" width="14.532" height="11.705" fill="none"/>
    </clipPath>
    <clipPath id="clip-path-4">
      <rect id="사각형_3895" data-name="사각형 3895" width="10.046" height="0.773" fill="none"/>
    </clipPath>
    <clipPath id="clip-path-5">
      <rect id="사각형_3896" data-name="사각형 3896" width="20.316" height="0.773" fill="none"/>
    </clipPath>
    <clipPath id="clip-path-23">
      <rect id="사각형_3917" data-name="사각형 3917" width="66.198" height="1.547" fill="none"/>
    </clipPath>
    <clipPath id="clip-path-24">
      <rect id="사각형_3918" data-name="사각형 3918" width="103.351" height="1.547" fill="none"/>
    </clipPath>
    <filter id="사각형_3347" x="238.682" y="57.009" width="130" height="158" filterUnits="userSpaceOnUse">
      <feOffset dy="3" input="SourceAlpha"/>
      <feGaussianBlur stdDeviation="3" result="blur"/>
      <feFlood flood-opacity="0.161"/>
      <feComposite operator="in" in2="blur"/>
      <feComposite in="SourceGraphic"/>
    </filter>
    <clipPath id="clip-path-25">
      <rect id="사각형_3886" data-name="사각형 3886" width="47.157" height="59.255" fill="#2e58ff"/>
    </clipPath>
    <clipPath id="clip-path-26">
      <rect id="사각형_3672" data-name="사각형 3672" width="201.696" height="153.097" fill="none"/>
    </clipPath>
  </defs>
  <g id="service_info2" transform="translate(-777 -275)">
    <g id="사각형_3889" data-name="사각형 3889" transform="translate(777 275)" fill="#fff" stroke="#e9e9e9" stroke-width="1">
      <rect width="410" height="280" stroke="none"/>
      <rect x="0.5" y="0.5" width="409" height="279" fill="none"/>
    </g>
    <g id="그룹_1380" data-name="그룹 1380" transform="translate(-3.013 -5.991)">
      <g id="그룹_1378" data-name="그룹 1378" transform="translate(788.026 306)" opacity="0.6">
        <g id="그룹_1377" data-name="그룹 1377" clip-path="url(#clip-path)">
          <g id="그룹_1376" data-name="그룹 1376">
            <g id="그룹_1375" data-name="그룹 1375" clip-path="url(#clip-path-2)">
              <path id="패스_8248" data-name="패스 8248" d="M55,129.483a35.232,35.232,0,0,0,12.712,10.4l3.871-6.448a27.659,27.659,0,0,0,7.1,2.138l-.344,7.522a35.486,35.486,0,0,0,16.348-1.632l-1.824-7.305a27.639,27.639,0,0,0,6.538-3.5l5.069,5.555a35.233,35.233,0,0,0,10.4-12.712l-6.448-3.871a27.625,27.625,0,0,0,2.138-7.1l7.522.344a35.483,35.483,0,0,0-1.631-16.347l-7.305,1.824a27.66,27.66,0,0,0-3.5-6.539l5.555-5.069a35.233,35.233,0,0,0-12.712-10.4l-3.871,6.448a27.66,27.66,0,0,0-7.1-2.138l.343-7.522A35.469,35.469,0,0,0,71.52,74.763l1.824,7.3a27.66,27.66,0,0,0-6.539,3.5l-5.069-5.555a35.233,35.233,0,0,0-10.4,12.712l6.448,3.871a27.626,27.626,0,0,0-2.138,7.1l-7.522-.345A35.475,35.475,0,0,0,49.75,119.7l7.3-1.824a27.66,27.66,0,0,0,3.5,6.539ZM69.938,97.34a17.013,17.013,0,1,1,2.389,23.941A17.013,17.013,0,0,1,69.938,97.34m4.5,3.685a11.2,11.2,0,1,1,1.572,15.754,11.2,11.2,0,0,1-1.572-15.754" transform="translate(-10.833 -16.501)" fill="#edeef7"/>
              <path id="패스_8249" data-name="패스 8249" d="M296.242,50.822a44.365,44.365,0,0,0,7.874,19.135l8.147-4.834a34.812,34.812,0,0,0,6.6,6.615l-4.878,8.134a44.7,44.7,0,0,0,19.1,7.963l2.346-9.189a34.839,34.839,0,0,0,9.341.029l2.3,9.19A44.374,44.374,0,0,0,366.2,79.991l-4.834-8.147a34.813,34.813,0,0,0,6.615-6.6l8.134,4.878a44.692,44.692,0,0,0,7.963-19.1l-9.189-2.346a34.838,34.838,0,0,0,.029-9.341l9.19-2.3a44.374,44.374,0,0,0-7.874-19.136l-8.147,4.834a34.832,34.832,0,0,0-6.595-6.615l4.878-8.134a44.683,44.683,0,0,0-19.1-7.963l-2.345,9.189a34.812,34.812,0,0,0-9.342-.029L333.285,0a44.374,44.374,0,0,0-19.136,7.874l4.834,8.147a34.807,34.807,0,0,0-6.615,6.595l-8.134-4.878a44.692,44.692,0,0,0-7.963,19.1l9.19,2.345a34.814,34.814,0,0,0-.029,9.342ZM332.02,24.114a21.43,21.43,0,1,1-11.662,27.973A21.431,21.431,0,0,1,332.02,24.114m2.789,6.777A14.1,14.1,0,1,1,327.134,49.3a14.1,14.1,0,0,1,7.675-18.407" transform="translate(-67.137)" fill="#edeef7"/>
              <path id="패스_8250" data-name="패스 8250" d="M89.368,241.82a27.715,27.715,0,0,0,10,8.188l3.046-5.073A21.771,21.771,0,0,0,108,246.616l-.271,5.919a27.921,27.921,0,0,0,12.863-1.284l-1.435-5.748a21.728,21.728,0,0,0,5.144-2.753l3.989,4.371a27.721,27.721,0,0,0,8.188-10l-5.074-3.046a21.762,21.762,0,0,0,1.683-5.588l5.919.271a27.926,27.926,0,0,0-1.284-12.863l-5.748,1.435a21.761,21.761,0,0,0-2.753-5.145l4.371-3.988a27.714,27.714,0,0,0-10-8.188l-3.046,5.073a21.71,21.71,0,0,0-5.588-1.682l.271-5.919a27.911,27.911,0,0,0-12.863,1.284l1.435,5.748a21.765,21.765,0,0,0-5.145,2.754l-3.989-4.372a27.753,27.753,0,0,0-8.188,10l5.074,3.046a21.743,21.743,0,0,0-1.683,5.588l-5.919-.271a27.936,27.936,0,0,0,1.284,12.863l5.748-1.435a21.761,21.761,0,0,0,2.753,5.145Zm11.754-25.292A13.387,13.387,0,1,1,103,235.366a13.387,13.387,0,0,1-1.88-18.839m3.543,2.9a8.809,8.809,0,1,1,1.237,12.4,8.809,8.809,0,0,1-1.237-12.4" transform="translate(-18.969 -44.697)" fill="#edeef7"/>
              <path id="패스_8251" data-name="패스 8251" d="M135.809,49.48A18.328,18.328,0,0,0,137.5,41.1l-3.906-.212a14.361,14.361,0,0,0-.744-3.786l3.542-1.671a18.466,18.466,0,0,0-4.726-7.12l-2.916,2.616a14.4,14.4,0,0,0-3.2-2.155l1.322-3.682A18.328,18.328,0,0,0,118.5,23.4l-.212,3.906a14.422,14.422,0,0,0-3.786.744l-1.671-3.542a18.459,18.459,0,0,0-7.12,4.727l2.616,2.915a14.387,14.387,0,0,0-2.155,3.2l-3.682-1.321a18.323,18.323,0,0,0-1.692,8.376l3.906.212a14.379,14.379,0,0,0,.744,3.785L101.9,48.074a18.455,18.455,0,0,0,4.726,7.12l2.916-2.616a14.37,14.37,0,0,0,3.2,2.155l-1.322,3.682a18.343,18.343,0,0,0,8.376,1.693l.212-3.906a14.38,14.38,0,0,0,3.785-.745L125.468,59a18.446,18.446,0,0,0,7.12-4.726l-2.616-2.915a14.406,14.406,0,0,0,2.155-3.2Zm-18.413.95a8.85,8.85,0,1,1,10.427-6.922A8.85,8.85,0,0,1,117.4,50.429" transform="translate(-22.841 -5.301)" fill="#edeef7"/>
              <path id="패스_8252" data-name="패스 8252" d="M458.839,85.116a16.543,16.543,0,0,0,3.5-6.869L459,77.116a12.965,12.965,0,0,0,.271-3.47l3.484-.593a16.652,16.652,0,0,0-2.38-7.335L457.2,67.284a12.95,12.95,0,0,0-2.257-2.649l2.042-2.88a16.541,16.541,0,0,0-6.869-3.5L448.988,61.6a12.967,12.967,0,0,0-3.47-.271l-.594-3.484a16.663,16.663,0,0,0-7.334,2.381l1.566,3.168a12.977,12.977,0,0,0-2.649,2.258l-2.88-2.042a16.528,16.528,0,0,0-3.5,6.869l3.343,1.131a12.968,12.968,0,0,0-.271,3.47l-3.484.593A16.646,16.646,0,0,0,432.094,83l3.168-1.566a12.98,12.98,0,0,0,2.258,2.65l-2.042,2.879a16.518,16.518,0,0,0,6.869,3.5l1.131-3.343a12.935,12.935,0,0,0,3.47.271l.593,3.484a16.649,16.649,0,0,0,7.334-2.38l-1.566-3.168a12.981,12.981,0,0,0,2.65-2.258Zm-16.233-3.641a7.985,7.985,0,1,1,10.741-3.486,7.985,7.985,0,0,1-10.741,3.486" transform="translate(-87.385 -23.108)" fill="#edeef7"/>
              <path id="패스_8253" data-name="패스 8253" d="M522.836,174.476h-2.6a.846.846,0,0,1-.846-.846v-2.6a.846.846,0,0,1,.846-.846h2.6a.846.846,0,0,1,.846.846v2.6a.846.846,0,0,1-.846.846" transform="translate(-161.708 -38.568)" fill="#edeef7"/>
              <path id="패스_8254" data-name="패스 8254" d="M497.649,104.858h-2.6a.846.846,0,0,1-.846-.846v-2.6a.846.846,0,0,1,.846-.846h2.6a.846.846,0,0,1,.846.846v2.6a.846.846,0,0,1-.846.846" transform="translate(-112 -22.791)" fill="#edeef7"/>
              <path id="패스_8255" data-name="패스 8255" d="M284.1,12.742h-2.6a.846.846,0,0,1-.845-.846v-2.6a.845.845,0,0,1,.845-.846h2.6a.846.846,0,0,1,.846.846v2.6a.846.846,0,0,1-.846.846" transform="translate(-63.603 -1.915)" fill="#edeef7"/>
              <path id="패스_8256" data-name="패스 8256" d="M500.426,152.891h-2.6a.846.846,0,0,1-.845-.846v-2.6a.845.845,0,0,1,.845-.846h2.6a.846.846,0,0,1,.846.846v2.6a.846.846,0,0,1-.846.846" transform="translate(-123.551 -33.676)" fill="#edeef7"/>
              <path id="패스_8257" data-name="패스 8257" d="M179.649,58.928h-2.6a.846.846,0,0,1-.846-.846v-2.6a.846.846,0,0,1,.846-.847h2.6a.846.846,0,0,1,.846.847v2.6a.846.846,0,0,1-.846.846" transform="translate(-39.932 -12.381)" fill="#edeef7"/>
              <path id="패스_8258" data-name="패스 8258" d="M122.139,167.311a3.56,3.56,0,1,1-3.56-3.56A3.56,3.56,0,0,1,122.139,167.311Z" transform="translate(-26.067 -37.111)" fill="none" stroke="#c5c8ef" stroke-linejoin="round" stroke-width="1"/>
              <path id="패스_8259" data-name="패스 8259" d="M60.65,60.367a3.56,3.56,0,1,1-3.56-3.56A3.56,3.56,0,0,1,60.65,60.367Z" transform="translate(-12.131 -12.874)" fill="none" stroke="#c5c8ef" stroke-linejoin="round" stroke-width="1"/>
              <path id="패스_8260" data-name="패스 8260" d="M91.781,56a1.846,1.846,0,1,1-1.845-1.846A1.846,1.846,0,0,1,91.781,56Z" transform="translate(-19.964 -12.273)" fill="none" stroke="#c5c8ef" stroke-linejoin="round" stroke-width="1"/>
              <path id="패스_8261" data-name="패스 8261" d="M510.221,111.962a1.846,1.846,0,1,1-1.846-1.846A1.846,1.846,0,0,1,510.221,111.962Z" transform="translate(-136.794 -24.955)" fill="none" stroke="#c5c8ef" stroke-linejoin="round" stroke-width="1"/>
              <path id="패스_8262" data-name="패스 8262" d="M195.7,47.228a1.846,1.846,0,1,1-1.846-1.846A1.846,1.846,0,0,1,195.7,47.228Z" transform="translate(-43.515 -10.285)" fill="none" stroke="#c5c8ef" stroke-linejoin="round" stroke-width="1"/>
              <line id="선_1360" data-name="선 1360" x2="9.521" transform="translate(13.427 78.221)" fill="none" stroke="#c5c8ef" stroke-linejoin="round" stroke-width="1"/>
              <line id="선_1361" data-name="선 1361" x2="18.187" transform="translate(0 73.522)" fill="none" stroke="#c5c8ef" stroke-linejoin="round" stroke-width="1"/>
              <line id="선_1362" data-name="선 1362" x2="13.388" transform="translate(174.94 16.543)" fill="none" stroke="#c5c8ef" stroke-linejoin="round" stroke-width="1"/>
              <line id="선_1363" data-name="선 1363" x2="9.521" transform="translate(187.466 21.24)" fill="none" stroke="#c5c8ef" stroke-linejoin="round" stroke-width="1"/>
              <line id="선_1364" data-name="선 1364" x2="9.521" transform="translate(170.655 54.441)" fill="none" stroke="#c5c8ef" stroke-linejoin="round" stroke-width="1"/>
              <line id="선_1365" data-name="선 1365" y2="3.834" transform="translate(17.398 104.43)" fill="none" stroke="#c5c8ef" stroke-linecap="round" stroke-linejoin="round" stroke-width="1"/>
              <line id="선_1366" data-name="선 1366" x1="3.834" transform="translate(15.481 106.346)" fill="none" stroke="#c5c8ef" stroke-linecap="round" stroke-linejoin="round" stroke-width="1"/>
              <line id="선_1367" data-name="선 1367" y2="3.834" transform="translate(335.294 43.657)" fill="none" stroke="#c5c8ef" stroke-linecap="round" stroke-linejoin="round" stroke-width="1"/>
              <line id="선_1368" data-name="선 1368" x1="3.834" transform="translate(333.377 45.574)" fill="none" stroke="#c5c8ef" stroke-linecap="round" stroke-linejoin="round" stroke-width="1"/>
              <line id="선_1369" data-name="선 1369" y2="3.834" transform="translate(205.447 40.424)" fill="none" stroke="#c5c8ef" stroke-linecap="round" stroke-linejoin="round" stroke-width="1"/>
              <line id="선_1370" data-name="선 1370" x1="3.834" transform="translate(203.53 42.341)" fill="none" stroke="#c5c8ef" stroke-linecap="round" stroke-linejoin="round" stroke-width="1"/>
              <line id="선_1371" data-name="선 1371" y2="3.834" transform="translate(375.344 118.731)" fill="none" stroke="#c5c8ef" stroke-linecap="round" stroke-linejoin="round" stroke-width="1"/>
              <line id="선_1372" data-name="선 1372" x1="3.834" transform="translate(373.427 120.648)" fill="none" stroke="#c5c8ef" stroke-linecap="round" stroke-linejoin="round" stroke-width="1"/>
              <rect id="사각형_3890" data-name="사각형 3890" width="238.552" height="159.064" transform="translate(104.21 54.293)" fill="#fff"/>
              <rect id="사각형_3891" data-name="사각형 3891" width="238.552" height="159.064" transform="translate(104.21 54.293)" fill="none" stroke="#7c8bd8" stroke-linejoin="round" stroke-width="1"/>
              <rect id="사각형_3892" data-name="사각형 3892" width="223.085" height="143.597" transform="translate(111.943 62.027)" fill="none" stroke="#7c8bd8" stroke-linejoin="round" stroke-width="1"/>
              <g id="그룹_1311" data-name="그룹 1311" transform="translate(140.563 97.344)" opacity="0.35">
                <g id="그룹_1310" data-name="그룹 1310">
                  <g id="그룹_1309" data-name="그룹 1309" clip-path="url(#clip-path-3)">
                    <rect id="사각형_3893" data-name="사각형 3893" width="14.532" height="11.705" transform="translate(0 0)" fill="#abb3ed"/>
                  </g>
                </g>
              </g>
              <g id="그룹_1314" data-name="그룹 1314" transform="translate(161.772 96.958)" opacity="0.35">
                <g id="그룹_1313" data-name="그룹 1313">
                  <g id="그룹_1312" data-name="그룹 1312" clip-path="url(#clip-path-4)">
                    <line id="선_1373" data-name="선 1373" x2="10.046" transform="translate(0 0.387)" fill="none" stroke="#abb3ed" stroke-miterlimit="10" stroke-width="1"/>
                  </g>
                </g>
              </g>
              <g id="그룹_1317" data-name="그룹 1317" transform="translate(161.772 108.663)" opacity="0.35">
                <g id="그룹_1316" data-name="그룹 1316">
                  <g id="그룹_1315" data-name="그룹 1315" clip-path="url(#clip-path-5)">
                    <line id="선_1374" data-name="선 1374" x2="20.316" transform="translate(0 0.387)" fill="none" stroke="#abb3ed" stroke-miterlimit="10" stroke-width="1"/>
                  </g>
                </g>
              </g>
              <g id="그룹_1320" data-name="그룹 1320" transform="translate(161.772 104.897)" opacity="0.35">
                <g id="그룹_1319" data-name="그룹 1319">
                  <g id="그룹_1318" data-name="그룹 1318" clip-path="url(#clip-path-5)">
                    <line id="선_1375" data-name="선 1375" x2="20.316" transform="translate(0 0.386)" fill="none" stroke="#abb3ed" stroke-miterlimit="10" stroke-width="1"/>
                  </g>
                </g>
              </g>
              <g id="그룹_1323" data-name="그룹 1323" transform="translate(161.772 101.229)" opacity="0.35">
                <g id="그룹_1322" data-name="그룹 1322">
                  <g id="그룹_1321" data-name="그룹 1321" clip-path="url(#clip-path-5)">
                    <line id="선_1376" data-name="선 1376" x2="20.316" transform="translate(0 0.386)" fill="none" stroke="#abb3ed" stroke-miterlimit="10" stroke-width="1"/>
                  </g>
                </g>
              </g>
              <g id="그룹_1326" data-name="그룹 1326" transform="translate(140.563 120.648)" opacity="0.35">
                <g id="그룹_1325" data-name="그룹 1325">
                  <g id="그룹_1324" data-name="그룹 1324" clip-path="url(#clip-path-3)">
                    <rect id="사각형_3899" data-name="사각형 3899" width="14.532" height="11.705" fill="#abb3ed"/>
                  </g>
                </g>
              </g>
              <g id="그룹_1329" data-name="그룹 1329" transform="translate(161.772 120.262)" opacity="0.35">
                <g id="그룹_1328" data-name="그룹 1328">
                  <g id="그룹_1327" data-name="그룹 1327" clip-path="url(#clip-path-4)">
                    <line id="선_1377" data-name="선 1377" x2="10.046" transform="translate(0 0.386)" fill="none" stroke="#abb3ed" stroke-miterlimit="10" stroke-width="1"/>
                  </g>
                </g>
              </g>
              <g id="그룹_1332" data-name="그룹 1332" transform="translate(161.772 131.967)" opacity="0.35">
                <g id="그룹_1331" data-name="그룹 1331">
                  <g id="그룹_1330" data-name="그룹 1330" clip-path="url(#clip-path-5)">
                    <line id="선_1378" data-name="선 1378" x2="20.316" transform="translate(0 0.386)" fill="none" stroke="#abb3ed" stroke-miterlimit="10" stroke-width="1"/>
                  </g>
                </g>
              </g>
              <g id="그룹_1335" data-name="그룹 1335" transform="translate(161.772 128.2)" opacity="0.35">
                <g id="그룹_1334" data-name="그룹 1334">
                  <g id="그룹_1333" data-name="그룹 1333" clip-path="url(#clip-path-5)">
                    <line id="선_1379" data-name="선 1379" x2="20.316" transform="translate(0 0.387)" fill="none" stroke="#abb3ed" stroke-miterlimit="10" stroke-width="1"/>
                  </g>
                </g>
              </g>
              <g id="그룹_1338" data-name="그룹 1338" transform="translate(161.772 124.532)" opacity="0.35">
                <g id="그룹_1337" data-name="그룹 1337">
                  <g id="그룹_1336" data-name="그룹 1336" clip-path="url(#clip-path-5)">
                    <line id="선_1380" data-name="선 1380" x2="20.316" transform="translate(0 0.387)" fill="none" stroke="#abb3ed" stroke-miterlimit="10" stroke-width="1"/>
                  </g>
                </g>
              </g>
              <g id="그룹_1341" data-name="그룹 1341" transform="translate(140.563 143.952)" opacity="0.35">
                <g id="그룹_1340" data-name="그룹 1340">
                  <g id="그룹_1339" data-name="그룹 1339" clip-path="url(#clip-path-3)">
                    <rect id="사각형_3905" data-name="사각형 3905" width="14.532" height="11.705" transform="translate(0 0)" fill="#abb3ed"/>
                  </g>
                </g>
              </g>
              <g id="그룹_1344" data-name="그룹 1344" transform="translate(161.772 143.565)" opacity="0.35">
                <g id="그룹_1343" data-name="그룹 1343">
                  <g id="그룹_1342" data-name="그룹 1342" clip-path="url(#clip-path-4)">
                    <line id="선_1381" data-name="선 1381" x2="10.046" transform="translate(0 0.387)" fill="none" stroke="#abb3ed" stroke-miterlimit="10" stroke-width="1"/>
                  </g>
                </g>
              </g>
              <g id="그룹_1347" data-name="그룹 1347" transform="translate(161.772 155.27)" opacity="0.35">
                <g id="그룹_1346" data-name="그룹 1346">
                  <g id="그룹_1345" data-name="그룹 1345" clip-path="url(#clip-path-5)">
                    <line id="선_1382" data-name="선 1382" x2="20.316" transform="translate(0 0.387)" fill="none" stroke="#abb3ed" stroke-miterlimit="10" stroke-width="1"/>
                  </g>
                </g>
              </g>
              <g id="그룹_1350" data-name="그룹 1350" transform="translate(161.772 151.504)" opacity="0.35">
                <g id="그룹_1349" data-name="그룹 1349">
                  <g id="그룹_1348" data-name="그룹 1348" clip-path="url(#clip-path-5)">
                    <line id="선_1383" data-name="선 1383" x2="20.316" transform="translate(0 0.387)" fill="none" stroke="#abb3ed" stroke-miterlimit="10" stroke-width="1"/>
                  </g>
                </g>
              </g>
              <g id="그룹_1353" data-name="그룹 1353" transform="translate(161.772 147.836)" opacity="0.35">
                <g id="그룹_1352" data-name="그룹 1352">
                  <g id="그룹_1351" data-name="그룹 1351" clip-path="url(#clip-path-5)">
                    <line id="선_1384" data-name="선 1384" x2="20.316" transform="translate(0 0.387)" fill="none" stroke="#abb3ed" stroke-miterlimit="10" stroke-width="1"/>
                  </g>
                </g>
              </g>
              <g id="그룹_1356" data-name="그룹 1356" transform="translate(140.563 167.255)" opacity="0.35">
                <g id="그룹_1355" data-name="그룹 1355">
                  <g id="그룹_1354" data-name="그룹 1354" clip-path="url(#clip-path-3)">
                    <rect id="사각형_3911" data-name="사각형 3911" width="14.532" height="11.705" transform="translate(0 0)" fill="#abb3ed"/>
                  </g>
                </g>
              </g>
              <g id="그룹_1359" data-name="그룹 1359" transform="translate(161.772 166.869)" opacity="0.35">
                <g id="그룹_1358" data-name="그룹 1358">
                  <g id="그룹_1357" data-name="그룹 1357" clip-path="url(#clip-path-4)">
                    <line id="선_1385" data-name="선 1385" x2="10.046" transform="translate(0 0.387)" fill="none" stroke="#abb3ed" stroke-miterlimit="10" stroke-width="1"/>
                  </g>
                </g>
              </g>
              <g id="그룹_1362" data-name="그룹 1362" transform="translate(161.772 178.574)" opacity="0.35">
                <g id="그룹_1361" data-name="그룹 1361">
                  <g id="그룹_1360" data-name="그룹 1360" clip-path="url(#clip-path-5)">
                    <line id="선_1386" data-name="선 1386" x2="20.316" transform="translate(0 0.387)" fill="none" stroke="#abb3ed" stroke-miterlimit="10" stroke-width="1"/>
                  </g>
                </g>
              </g>
              <g id="그룹_1365" data-name="그룹 1365" transform="translate(161.772 174.807)" opacity="0.35">
                <g id="그룹_1364" data-name="그룹 1364">
                  <g id="그룹_1363" data-name="그룹 1363" clip-path="url(#clip-path-5)">
                    <line id="선_1387" data-name="선 1387" x2="20.316" transform="translate(0 0.387)" fill="none" stroke="#abb3ed" stroke-miterlimit="10" stroke-width="1"/>
                  </g>
                </g>
              </g>
              <g id="그룹_1368" data-name="그룹 1368" transform="translate(161.772 171.139)" opacity="0.35">
                <g id="그룹_1367" data-name="그룹 1367">
                  <g id="그룹_1366" data-name="그룹 1366" clip-path="url(#clip-path-5)">
                    <line id="선_1388" data-name="선 1388" x2="20.316" transform="translate(0 0.387)" fill="none" stroke="#abb3ed" stroke-miterlimit="10" stroke-width="1"/>
                  </g>
                </g>
              </g>
              <line id="선_1389" data-name="선 1389" y1="27.522" transform="translate(321.647 26.771)" fill="none" stroke="#7c8bd8" stroke-linejoin="round" stroke-width="1"/>
              <circle id="타원_633" data-name="타원 633" cx="2.193" cy="2.193" r="2.193" transform="translate(319.454 22.385)" fill="none" stroke="#7c8bd8" stroke-linejoin="round" stroke-width="1"/>
              <line id="선_1390" data-name="선 1390" y1="27.522" transform="translate(125.325 26.771)" fill="none" stroke="#7c8bd8" stroke-linejoin="round" stroke-width="1"/>
              <circle id="타원_634" data-name="타원 634" cx="2.193" cy="2.193" r="2.193" transform="matrix(0.23, -0.973, 0.973, 0.23, 122.686, 26.209)" fill="none" stroke="#7c8bd8" stroke-linejoin="round" stroke-width="1"/>
              <g id="그룹_1371" data-name="그룹 1371" transform="translate(190.387 68.687)" opacity="0.35">
                <g id="그룹_1370" data-name="그룹 1370">
                  <g id="그룹_1369" data-name="그룹 1369" clip-path="url(#clip-path-23)">
                    <line id="선_1391" data-name="선 1391" x2="64.652" transform="translate(0.773 0.774)" fill="none" stroke="#abb3ed" stroke-linecap="round" stroke-linejoin="round" stroke-width="2"/>
                  </g>
                </g>
              </g>
              <g id="그룹_1374" data-name="그룹 1374" transform="translate(171.811 75.725)" opacity="0.35">
                <g id="그룹_1373" data-name="그룹 1373">
                  <g id="그룹_1372" data-name="그룹 1372" clip-path="url(#clip-path-24)">
                    <line id="선_1392" data-name="선 1392" x2="101.804" transform="translate(0.773 0.774)" fill="none" stroke="#abb3ed" stroke-linecap="round" stroke-linejoin="round" stroke-width="2"/>
                  </g>
                </g>
              </g>
            </g>
          </g>
        </g>
      </g>
      <g transform="matrix(1, 0, 0, 1, 780.01, 280.99)" filter="url(#사각형_3347)">
        <g id="사각형_3347-2" data-name="사각형 3347" transform="translate(247.68 63.01)" fill="rgba(255,255,255,0.94)" stroke="rgba(216,216,216,0.3)" stroke-width="3">
          <rect width="112" height="140" rx="19" stroke="none"/>
          <rect x="1.5" y="1.5" width="109" height="137" rx="17.5" fill="none"/>
        </g>
      </g>
      <g id="그룹_1305" data-name="그룹 1305" transform="translate(272.696 -91)">
        <text id="Seo_Jun_Young" data-name="Seo Jun Young" transform="translate(811 538)" fill="#343434" font-size="14" font-family="NotoSansCJKkr-Regular, Noto Sans CJK KR"><tspan x="-25.76" y="0">참고문헌</tspan><tspan x="-27.328" y="20">목록 생성</tspan></text>
        <rect id="사각형_3887" data-name="사각형 3887" width="35" height="8" transform="translate(797 503)" fill="#d1e7ff"/>
        <rect id="사각형_3888" data-name="사각형 3888" width="7" height="50" transform="translate(825 461)" fill="#d1e7ff"/>
        <g id="그룹_1304" data-name="그룹 1304" transform="translate(2 -1)">
          <g id="그룹_1303" data-name="그룹 1303" transform="translate(785 454.203)">
            <g id="그룹_1302" data-name="그룹 1302" clip-path="url(#clip-path-25)">
              <path id="패스_8244" data-name="패스 8244" d="M12.468,59.255H43.454a3.637,3.637,0,0,0,3.7-3.7V9.259a3.638,3.638,0,0,0-3.7-3.7h-7.9L30.368.37A1.334,1.334,0,0,0,29.5,0H3.7A3.637,3.637,0,0,0,0,3.7V47.651a3.637,3.637,0,0,0,3.7,3.7H8.765v4.2a3.637,3.637,0,0,0,3.7,3.7M43.454,8.024a1.166,1.166,0,0,1,1.234,1.234V55.552a1.166,1.166,0,0,1-1.234,1.234H12.468a1.167,1.167,0,0,1-1.234-1.234v-4.2H37.158a3.637,3.637,0,0,0,3.7-3.7V11.357a.455.455,0,0,0-.123-.371v-.123c0-.124-.124-.247-.247-.371L38.022,8.024ZM30.738,4.2l5.925,5.925H30.738ZM2.469,47.651V3.7A1.166,1.166,0,0,1,3.7,2.469H28.269v8.888A1.166,1.166,0,0,0,29.5,12.592h8.888V47.651a1.166,1.166,0,0,1-1.234,1.234H3.7a1.328,1.328,0,0,1-1.234-1.234" fill="#2e58ff"/>
              <path id="패스_8247" data-name="패스 8247" d="M85.264,182.679,75.018,192.8l-4.568-4.568a1.222,1.222,0,0,0-1.728,1.728l5.432,5.555a1.334,1.334,0,0,0,.864.37,1.121,1.121,0,0,0,.864-.37l11.11-10.987a1.27,1.27,0,0,0-1.729-1.852" transform="translate(-57.365 -153.052)" fill="#2e58ff"/>
            </g>
          </g>
          <text id="Seo_Jun_Young-2" data-name="Seo Jun Young" transform="translate(805 481)" fill="#2e58ff" font-size="15" font-family="NotoSansCJKkr-Medium, Noto Sans CJK KR" font-weight="500"><tspan x="-13.665" y="0">REF</tspan></text>
        </g>
      </g>
      <g id="cursor-arrow-default" transform="translate(1128.281 471)">
        <g id="cursor-arrow-default-2" data-name="cursor-arrow-default" transform="translate(-0.313 -0.946)">
          <path id="Path" d="M8.923,15.029c.175.421.007,2.015-.923,2.385a3.689,3.689,0,0,1-2.118,0L3.726,13.1,0,16.828V0L11.414,11.414H7.162C7.37,11.814,8.7,14.494,8.923,15.029Z" transform="translate(0.313 0.946)" fill="#fff"/>
          <path id="Path-2" data-name="Path" d="M0,0V12L3,9l2.5,5s.676.216,1,0,.646-.65.5-1c-.688-1.65-2.5-5-2.5-5H8Z" transform="translate(1.313 3.36)"/>
        </g>
      </g>
      <g id="그룹_1300" data-name="그룹 1300" transform="translate(826 385.602)">
        <g id="그룹_1299" data-name="그룹 1299" clip-path="url(#clip-path-26)">
          <path id="패스_8217" data-name="패스 8217" d="M43.667,38.351s.187,3.379-1.12,4.758c-3.9,4.12-16,8.19-7.717,23.92l58.4-5.865s2.26-6.821-4.631-9.962c0,0-2.413-1.243-1.448-5.811s-2.809-7.367-7.525-11.669l-9.6-11.785Z" transform="translate(-13.782 -9.449)" fill="#37305d"/>
          <path id="패스_8218" data-name="패스 8218" d="M83.859,52.419l-28.7,3.845S44.772,11.386,64.283,2.988C85-5.93,93.742,7.058,98.113,16.557Z" transform="translate(-22.57 0)" fill="#37305d"/>
          <path id="패스_8219" data-name="패스 8219" d="M79.76,1.666a13.994,13.994,0,0,0-3.577,2.488c-9.851,9.4-3.719,27.739,5.033,36.04,4.844,4.6,11.944,6.75,18.161,4.446,9.092-3.369,11.977-13.642,10.173-22.805A28.19,28.19,0,0,0,98.88,4.514C93.316.485,85.775-1.242,79.76,1.666" transform="translate(-30.641 -0.093)" fill="#fca0a0"/>
          <path id="패스_8220" data-name="패스 8220" d="M74.124,52.338a7.165,7.165,0,0,1-7.017,1.556,7.782,7.782,0,0,1-4.757-5.51,6.305,6.305,0,0,1,1.732-6.191,4.465,4.465,0,0,1,6.055.529Z" transform="translate(-26.778 -17.771)" fill="#fca0a0"/>
          <path id="패스_8221" data-name="패스 8221" d="M78.8,50.182l1.664,32.382a11.321,11.321,0,1,0,22.549-1.8L99.5,50.684Z" transform="translate(-33.944 -21.616)" fill="#fca0a0"/>
          <path id="패스_8222" data-name="패스 8222" d="M106.2,79.726l-.434-4.436a18.221,18.221,0,0,1-16.92-4.845S93.426,78.9,106.2,79.726" transform="translate(-38.269 -30.344)" fill="#111010"/>
          <path id="패스_8223" data-name="패스 8223" d="M123.174,47.346a4.151,4.151,0,0,1,.507-1.124,6.381,6.381,0,0,1,.712-.956l.276.89a3.167,3.167,0,0,1-1.527-1.211,4.6,4.6,0,0,1-.457-.78,3.862,3.862,0,0,1-.284-.854c.474.373.9.743,1.329,1.07a4.044,4.044,0,0,0,1.253.7l.787.206-.511.684a6.287,6.287,0,0,1-.794.89,4.121,4.121,0,0,1-1,.723.208.208,0,0,1-.294-.239" transform="translate(-52.724 -18.655)" fill="#d87778"/>
          <path id="패스_8224" data-name="패스 8224" d="M122.494,54.245a3.744,3.744,0,0,1-1.733,1.783,3.574,3.574,0,0,1-2.634.233,4.835,4.835,0,0,1-2.143-1.433,10.542,10.542,0,0,1-.718-1.011,9.946,9.946,0,0,1-.5-1.12,11.268,11.268,0,0,1,.923.77c.3.252.612.472.89.722a6.661,6.661,0,0,0,1.866,1,3.668,3.668,0,0,0,2,.03,7.273,7.273,0,0,0,2.052-.972" transform="translate(-49.436 -22.699)" fill="#d87778"/>
          <path id="패스_8225" data-name="패스 8225" d="M72.839,52.015a2.206,2.206,0,0,1-2.6-1.627,1.936,1.936,0,0,1,1.308-1.861" transform="translate(-30.253 -20.903)" fill="none" stroke="#d87778" stroke-linecap="round" stroke-miterlimit="10" stroke-width="1.744"/>
          <path id="패스_8228" data-name="패스 8228" d="M97.885,5.628a6.06,6.06,0,0,1,2.426,3.52c.659,2.82-.664,6.874-13.6,7.018-12.035.134-9.445,8.238-17.653,7.342l-4.946-1.876S67.65-5.588,89.69,1.167a33.085,33.085,0,0,1,8.194,4.461" transform="translate(-27.614 -0.039)" fill="#37305d"/>
          <path id="패스_8229" data-name="패스 8229" d="M175.905,193.216l22.548,22.33-3.523,3.952a16.579,16.579,0,0,1-7.726,4.987c-7.124,2.046-14.55-1.02-19.746-8.545l-8.192-11.778Z" transform="translate(-68.604 -83.227)" fill="#fca0a0"/>
          <path id="패스_8230" data-name="패스 8230" d="M208.3,203.8l43.543-41.418-10.718-10-44.737,36.365c-4.166,3.386-.186,21.442,11.913,15.056" transform="translate(-83.905 -65.636)" fill="#fca0a0"/>
          <path id="패스_8231" data-name="패스 8231" d="M131.92,154.55c7.734-10.148-17.8-50.906-28.452-57.583-6.1-3.821-13.151-3.007-17.936-3.133-.259,2.181-2.354,5.1-7.853,6.315a22.154,22.154,0,0,1-16.031-2.106,79.586,79.586,0,0,0-16.513,5.39c-6.635,3.134-11.567,52.989-1.827,57.868-1.478,10.527-2.886,26.389-2.886,26.389l71.968-5.442-2.069-14.316s18.009-8.675,21.6-13.384" transform="translate(-16.296 -40.419)" fill="#3c63e0"/>
          <line id="선_1359" data-name="선 1359" x2="1.862" y2="18.151" transform="translate(92.564 106.258)" fill="none" stroke="#031932" stroke-linecap="round" stroke-linejoin="round" stroke-width="2.072"/>
          <path id="패스_8232" data-name="패스 8232" d="M106.181,212.074l-4.456,2.094c-.424.184,7.383,10.3,7.383,10.3s21.083-5.157,22.35-6.181-7-.287-7-.287,7.662-2.192,9.527-3.875c1.486-1.34-9.184-.261-9.184-.261,3.832-1.366,11.1-3.455,10.861-4.747-.3-1.618-12.53,1.891-12.53,1.891s8.362-3.151,8.512-4.758-16.4,2.645-16.4,2.645a9.172,9.172,0,0,0,1.4-6.774,2.122,2.122,0,0,0-2.058-1.353c-.439,4.7-8.4,11.307-8.4,11.307" transform="translate(-43.81 -86.478)" fill="#fca0a0"/>
          <path id="패스_8233" data-name="패스 8233" d="M14.245,189.086s-5.274,20.79-1.479,36.108c6.323,25.531,64.62-9.307,64.62-9.307L73.47,204.28S31.134,214.519,31.395,212.9c.656-4.089,2.311-17.794,2.311-17.794Z" transform="translate(-4.907 -81.448)" fill="#fca0a0"/>
          <path id="패스_8234" data-name="패스 8234" d="M35.841,169.081s-36.553,10.462-35.83.927c1.3-17.117,16.47-51.992,26.873-62.395,3.4-3.4,15.695-6.405,18.468-6.386Z" transform="translate(0 -43.603)" fill="#3c63e0"/>
          <path id="패스_8235" data-name="패스 8235" d="M55.771,205.617S56.654,199,59.3,184.43" transform="translate(-24.023 -79.443)" fill="none" stroke="#031932" stroke-linecap="round" stroke-linejoin="round" stroke-width="2.072"/>
          <path id="패스_8236" data-name="패스 8236" d="M174.672,167.269h30.665v-4.912H174.672a2.456,2.456,0,0,0,0,4.912" transform="translate(-74.182 -69.935)" fill="#cecece"/>
          <path id="패스_8237" data-name="패스 8237" d="M220.332,130.928h57.685a7.4,7.4,0,0,0,7.129-5.416L296.395,85.1a5.606,5.606,0,0,0-5.4-7.109H238.012a4.882,4.882,0,0,0-4.721,3.64Z" transform="translate(-94.908 -33.594)" fill="#dcdcdc"/>
          <path id="패스_8238" data-name="패스 8238" d="M282.03,124.332a5.457,5.457,0,1,0,5.457-5.457,5.457,5.457,0,0,0-5.457,5.457" transform="translate(-121.484 -51.205)" fill="#fff"/>
          <path id="패스_8239" data-name="패스 8239" d="M256.618,164.486s-.021,5.905,7.164,4.978c0,0,3.671-2.013,3.208-10.968a2.263,2.263,0,0,0-2.41-1.9,2.337,2.337,0,0,0-2.383,1.623l-1.41,6.279Z" transform="translate(-110.538 -67.455)" fill="#fca0a0"/>
          <path id="패스_8240" data-name="패스 8240" d="M269.11,169.684a7.45,7.45,0,0,0,5.881.006,6.609,6.609,0,0,0,4.658-.687,3.43,3.43,0,0,0,2.5-.3,3.047,3.047,0,0,0,1.74-2.7c.052-1.85-.152-5.042-1.938-6.921a1.673,1.673,0,0,0-1.642-.461c-.479.126-.749.013-1.044.611a2.437,2.437,0,0,0-1.845-1.214,1.959,1.959,0,0,0-2.032,1.349s.5-2.866-3.408-2.144-2.875,12.458-2.875,12.458" transform="translate(-115.866 -67.675)" fill="#fca0a0"/>
          <path id="패스_8241" data-name="패스 8241" d="M79.669,98.042s3.965,3.922,13.222,2.8a14.718,14.718,0,0,0,7.889-3.36,9.934,9.934,0,0,0,2.773-3.645" transform="translate(-34.317 -40.419)" fill="none" stroke="#031932" stroke-linecap="round" stroke-linejoin="round" stroke-width="2.072"/>
          <path id="패스_8206" data-name="패스 8206" d="M2.431,1.216A1.216,1.216,0,1,1,1.216,0,1.216,1.216,0,0,1,2.431,1.216" transform="matrix(0.978, -0.208, 0.208, 0.978, 60.977, 22.264)" fill="#121e35"/>
          <path id="패스_8207" data-name="패스 8207" d="M2.431,1.216A1.216,1.216,0,1,1,1.216,0,1.216,1.216,0,0,1,2.431,1.216" transform="matrix(0.978, -0.208, 0.208, 0.978, 71.987, 19.924)" fill="#121e35"/>
          <path id="패스_8209" data-name="패스 8209" d="M7.368,1.447,0,2.333S.592.378,3.6.043s3.766,1.4,3.766,1.4" transform="matrix(0.978, -0.208, 0.208, 0.978, 57.662, 18.882)" fill="#121e35"/>
          <path id="패스_8210" data-name="패스 8210" d="M0,1.447l7.368.885S6.776.378,3.766.043,0,1.447,0,1.447" transform="matrix(0.978, -0.208, 0.208, 0.978, 69.024, 16.466)" fill="#121e35"/>
          <path id="패스_8211" data-name="패스 8211" d="M10.053,5.027A5.027,5.027,0,1,1,5.026,0,5.027,5.027,0,0,1,10.053,5.027Z" transform="matrix(0.978, -0.208, 0.208, 0.978, 55.281, 19.542)" fill="none" stroke="#fff" stroke-miterlimit="10" stroke-width="1.25"/>
          <path id="패스_8212" data-name="패스 8212" d="M10.053,5.027A5.027,5.027,0,1,1,5.026,0,5.027,5.027,0,0,1,10.053,5.027Z" transform="matrix(0.978, -0.208, 0.208, 0.978, 69.206, 16.582)" fill="none" stroke="#fff" stroke-miterlimit="10" stroke-width="1.25"/>
          <path id="패스_8213" data-name="패스 8213" d="M0,1.213s1.775-2.73,4.184,0" transform="matrix(0.978, -0.208, 0.208, 0.978, 65.994, 21.591)" fill="none" stroke="#fff" stroke-miterlimit="10" stroke-width="1.25"/>
        </g>
      </g>
    </g>
  </g>
</svg>
